<?xml version="1.0" standalone="no"?>
<!DOCTYPE svg PUBLIC "-//W3C//DTD SVG 20010904//EN"
 "http://www.w3.org/TR/2001/REC-SVG-20010904/DTD/svg10.dtd">
<svg version="1.0" xmlns="http://www.w3.org/2000/svg"
 width="180.000000pt" height="180.000000pt" viewBox="0 0 180.000000 180.000000"
 preserveAspectRatio="xMidYMid meet">
<metadata>
Created by potrace 1.11, written by Peter Selinger 2001-2013
</metadata>
<g transform="translate(0.000000,180.000000) scale(0.100000,-0.100000)"
fill="#000000" stroke="none">
<path d="M745 1785 c-372 -69 -650 -343 -730 -720 -15 -71 -13 -261 5 -345 72
-349 345 -623 695 -700 116 -25 299 -21 410 10 292 80 514 282 621 567 23 62
28 79 44 178 8 51 6 226 -4 280 -61 344 -324 627 -664 716 -96 25 -279 32
-377 14z m365 -115 c149 -44 252 -104 353 -206 124 -124 198 -268 225 -434 9
-56 9 -211 0 -265 -55 -324 -315 -588 -642 -650 -42 -8 -114 -12 -176 -10
-255 8 -473 128 -625 340 -53 74 -87 148 -117 251 -32 112 -32 296 0 407 59
208 188 378 367 486 67 41 195 88 262 97 27 3 50 8 52 10 2 2 54 2 115 0 77
-2 134 -10 186 -26z"/>
<path d="M735 1601 c-232 -58 -420 -222 -505 -443 -40 -102 -45 -138 -44 -278
1 -95 6 -129 27 -195 38 -115 90 -199 182 -290 94 -94 178 -145 295 -182 73
-23 103 -27 210 -27 108 0 137 3 210 26 196 62 354 199 441 383 125 266 76
576 -127 801 -46 50 -145 120 -219 155 -144 67 -323 87 -470 50z m49 -361 c61
-29 86 -88 64 -150 -12 -35 -36 -51 -68 -45 -38 7 -42 20 -20 58 27 45 20 89
-15 105 -33 15 -64 3 -105 -44 -42 -48 -66 -102 -95 -217 -27 -106 -30 -246
-5 -284 42 -65 181 -53 256 22 34 34 56 19 30 -20 -78 -120 -250 -174 -369
-116 -71 34 -92 86 -91 221 1 167 56 323 145 410 78 76 190 101 273 60z m359
3 c-2 -7 -14 -65 -28 -128 -14 -64 -25 -123 -25 -131 0 -12 13 -14 67 -12 76
3 69 -7 98 138 32 158 27 150 101 150 50 0 64 -3 64 -15 0 -8 -23 -122 -50
-253 -28 -130 -61 -284 -73 -342 l-22 -105 -68 -3 c-51 -2 -67 0 -67 11 0 7 9
55 21 107 11 52 23 106 25 120 3 14 9 43 14 65 5 22 10 43 10 48 0 4 -31 7
-69 7 l-69 0 -16 -72 c-9 -40 -26 -120 -39 -178 l-22 -105 -69 -3 -68 -3 6 38
c4 21 25 121 47 223 22 102 41 194 44 205 2 11 6 31 9 45 3 14 9 41 13 60 4
19 8 37 8 40 1 3 5 22 9 42 5 21 13 42 20 47 26 21 133 25 129 4z"/>
</g>
</svg>
